<svg xmlns="http://www.w3.org/2000/svg" version="1.0" preserveAspectRatio="xMidYMid meet" viewBox="102 32.06 434 149.55">

<g transform="translate(0.000000,374.000000) scale(0.100000,-0.100000)" fill="#000000" stroke="none">
<path d="M1254 3401 c-46 -21 -78 -57 -94 -106 -9 -26 -18 -34 -45 -39 -21 -4 -45 -20 -64 -42 -26 -29 -31 -43 -31 -84 0 -59 26 -94 85 -114 33 -12 41 -20 46 -47 4 -18 5 -47 2 -65 l-5 -33 52 16 c38 11 84 14 167 11 l116 -3 -43 18 c-46 20 -129 26 -202 14 l-48 -8 -1 33 c-2 65 -12 82 -54 90 -54 12 -85 43 -85 85 0 45 14 69 50 88 40 21 47 19 58 -12 10 -27 10 -27 11 12 2 51 36 113 81 143 31 21 44 23 108 20 70 -3 76 -5 108 -40 19 -21 38 -57 45 -83 11 -45 11 -45 56 -45 61 0 100 -22 111 -64 20 -72 -13 -126 -78 -126 -39 0 -39 1 -29 26 14 39 5 39 -21 0 -13 -18 -35 -41 -49 -50 l-26 -17 33 6 32 7 1 -44 c1 -24 3 -34 6 -23 2 11 6 30 9 43 4 19 11 22 47 22 68 0 117 50 117 120 0 73 -47 123 -127 136 -36 5 -42 10 -53 45 -15 46 -63 97 -107 115 -46 20 -131 17 -179 -5z"/>
<path d="M1304 2850 c-70 -28 -212 -275 -240 -416 -16 -78 -16 -82 4 -127 21 -48 57 -75 86 -64 18 7 84 96 132 178 20 33 37 59 39 57 2 -2 -1 -23 -6 -48 -5 -24 -7 -69 -4 -99 5 -41 3 -52 -4 -41 -17 24 -14 -44 4 -85 15 -37 55 -60 88 -51 13 3 17 0 13 -12 -9 -31 -26 -135 -26 -159 0 -27 38 -69 50 -57 5 5 16 54 25 109 12 77 25 118 56 179 22 43 47 86 56 95 9 9 40 53 69 97 52 81 94 124 120 124 22 0 16 -30 -17 -95 -36 -69 -124 -175 -145 -175 -8 0 -14 -3 -14 -8 0 -15 31 -52 45 -52 7 0 38 27 68 60 29 33 76 72 103 86 27 14 59 35 71 47 29 27 36 19 17 -18 -9 -17 -27 -70 -41 -120 -14 -49 -31 -110 -38 -135 -7 -25 -16 -68 -19 -95 -6 -43 -4 -55 15 -79 14 -17 25 -24 31 -18 5 5 18 56 27 113 10 57 28 124 41 149 37 73 191 299 218 320 56 45 68 11 26 -72 -30 -59 -131 -178 -150 -178 -18 0 -3 -41 20 -55 15 -8 28 1 81 58 34 37 67 67 72 67 5 0 32 15 60 34 l51 34 7 -25 c3 -13 3 -41 -1 -61 -6 -31 -8 -34 -16 -17 -6 14 -7 10 -3 -15 6 -44 46 -80 86 -80 33 0 49 15 128 111 43 53 44 53 38 21 -32 -162 -32 -161 -10 -190 41 -55 69 -39 180 111 l66 88 31 -30 c42 -41 67 -39 106 7 18 20 29 29 26 18 -4 -11 -12 -50 -18 -87 -14 -82 -5 -119 34 -133 35 -12 47 -2 150 136 44 60 85 108 91 108 9 0 6 -38 -9 -87 -9 -30 35 -73 75 -73 24 0 42 13 95 73 79 88 129 161 114 166 -6 2 -15 -4 -20 -13 -35 -62 -164 -196 -189 -196 -16 0 -21 23 -14 79 6 55 8 59 45 75 21 9 54 35 74 56 59 66 45 120 -31 120 -42 0 -68 -23 -112 -98 -22 -37 -68 -101 -103 -143 -35 -42 -76 -93 -91 -113 -15 -20 -35 -36 -44 -36 -19 0 -13 38 27 165 16 49 28 91 26 93 -2 2 -12 -20 -21 -48 -9 -28 -19 -50 -21 -47 -8 8 38 127 48 121 6 -4 8 2 3 16 -5 14 -3 20 3 16 6 -3 22 24 38 64 15 39 30 73 34 75 3 2 28 5 56 6 57 3 74 7 74 21 0 7 -20 8 -55 3 -42 -5 -55 -3 -55 7 1 12 43 85 84 142 22 31 15 56 -17 56 -42 0 -66 -29 -134 -157 l-27 -53 -52 0 c-34 0 -56 5 -64 15 -18 22 -50 19 -50 -5 0 -11 -3 -20 -7 -20 -5 0 -9 -12 -10 -27 0 -16 -4 -40 -8 -55 -11 -43 11 -34 41 17 18 31 33 45 47 45 12 0 40 3 61 7 36 6 39 4 32 -13 -5 -10 -18 -46 -30 -79 -21 -56 -31 -78 -74 -149 -18 -30 -86 -75 -97 -64 -8 8 23 116 36 123 16 10 10 34 -12 45 -27 15 -45 -1 -60 -50 -6 -21 -37 -70 -68 -108 -31 -38 -72 -90 -91 -115 -67 -88 -79 -45 -30 105 16 51 28 94 26 96 -2 2 -12 -20 -21 -48 -9 -28 -19 -50 -21 -47 -2 2 6 32 17 66 15 45 24 59 31 50 5 -9 6 -4 2 15 -5 20 -4 27 4 22 8 -5 10 -2 6 8 -4 9 -1 16 6 16 7 0 10 7 6 16 -3 8 -2 13 3 10 5 -4 19 19 32 49 22 53 24 55 63 56 23 1 50 2 60 3 11 1 21 7 24 15 4 11 -6 12 -52 7 -31 -4 -56 -4 -56 0 0 13 62 118 86 147 13 16 24 33 24 38 0 12 -45 22 -69 14 -19 -6 -90 -113 -119 -177 -11 -26 -16 -28 -69 -29 -32 0 -76 -4 -98 -8 -65 -13 -16 -25 71 -18 41 4 74 3 74 -1 0 -5 -15 -47 -34 -95 -54 -138 -214 -323 -248 -289 -8 8 -9 29 -2 69 8 53 12 59 45 75 45 21 109 94 109 124 0 55 -70 72 -124 30 -18 -13 -41 -42 -51 -64 -15 -31 -34 -48 -78 -71 l-57 -30 22 42 c24 47 29 119 9 155 -8 15 -21 22 -41 22 -35 0 -74 -47 -181 -214 -38 -60 -69 -106 -69 -103 0 3 20 63 45 133 42 119 44 129 30 151 -17 25 -44 31 -49 11 -34 -127 -33 -125 -99 -161 -62 -34 -79 -39 -60 -15 6 7 18 35 27 63 16 46 16 52 1 92 -14 37 -21 43 -45 43 -41 0 -102 -78 -227 -288 -32 -53 -28 -33 17 96 43 123 48 153 25 172 -19 16 -45 6 -45 -18 0 -11 -16 -62 -36 -113 -19 -52 -40 -110 -46 -129 -12 -45 -57 -110 -74 -110 -55 0 7 330 83 446 15 24 15 26 -5 47 -28 27 -23 33 -151 -161 -103 -154 -163 -226 -184 -219 -13 4 -11 93 4 152 17 69 20 75 30 70 5 -3 6 0 3 8 -6 18 33 110 45 103 5 -3 23 18 40 48 31 56 81 102 116 108 15 2 24 -6 34 -29 17 -37 35 -42 51 -13 13 25 -13 53 -73 81 -47 21 -53 21 -83 9z m1156 -341 c0 -23 -10 -42 -40 -72 -22 -22 -43 -38 -46 -35 -11 12 59 138 77 138 5 0 9 -14 9 -31z m890 -1 c0 -23 -10 -41 -41 -70 -23 -22 -43 -37 -46 -34 -7 6 34 97 54 118 23 26 33 22 33 -14z m-1869 -235 c-12 -20 -14 -14 -5 12 4 9 9 14 11 11 3 -2 0 -13 -6 -23z m387 -51 c-6 -24 -13 -41 -15 -38 -2 2 1 23 7 46 6 23 13 40 15 38 2 -2 -1 -23 -7 -46z m-401 6 c-3 -8 -6 -5 -6 6 -1 11 2 17 5 13 3 -3 4 -12 1 -19z"/>
<path d="M3917 2830 c-25 -20 -57 -68 -57 -86 0 -4 7 1 15 12 14 18 15 17 4 -8 -7 -15 -16 -25 -22 -21 -6 3 -7 1 -3 -6 4 -6 -2 -31 -13 -54 -11 -23 -27 -71 -35 -107 -8 -36 -25 -109 -37 -163 -17 -76 -27 -100 -43 -109 -75 -38 -92 -118 -25 -118 5 0 19 12 32 26 35 42 90 72 164 90 69 17 123 39 123 51 0 7 -165 -3 -197 -13 -25 -7 -28 -23 34 196 51 181 105 290 143 290 21 0 9 -74 -21 -128 -33 -59 -29 -79 13 -63 32 12 68 70 75 120 11 79 -89 139 -150 91z m3 -24 c0 -2 -8 -10 -17 -17 -16 -13 -17 -12 -4 4 13 16 21 21 21 13z"/>
<path d="M5304 2780 c-12 -5 -25 -14 -30 -21 -5 -8 -3 -10 7 -4 8 4 5 -1 -6 -12 l-20 -21 -26 25 c-37 34 -73 28 -77 -12 -3 -35 46 -116 90 -148 27 -20 28 -20 49 -1 30 26 69 112 69 151 0 37 -24 55 -56 43z m-117 -82 c-3 -8 -6 -5 -6 6 -1 11 2 17 5 13 3 -3 4 -12 1 -19z"/>
<path d="M1206 2625 c-9 -26 -7 -32 5 -12 6 10 9 21 6 23 -2 3 -7 -2 -11 -11z"/>
<path d="M4239 2613 c-8 -2 -28 -23 -43 -48 -15 -24 -40 -48 -56 -55 -46 -19 -102 -109 -102 -165 0 -71 71 -121 129 -91 28 14 110 96 129 127 5 9 24 20 42 24 37 8 34 17 33 -117 -1 -66 3 -90 15 -102 22 -23 33 -20 45 12 30 74 41 94 75 132 38 42 54 50 54 25 0 -25 46 -29 90 -7 25 12 40 15 40 8 0 -6 5 -4 11 4 8 11 9 5 4 -25 -4 -22 -11 -45 -17 -52 -21 -26 35 -83 83 -83 28 0 43 14 151 147 52 63 61 69 88 65 18 -3 29 -9 26 -16 -38 -86 -56 -136 -56 -161 0 -34 24 -75 44 -75 39 0 159 130 210 229 29 54 12 58 -24 5 -78 -112 -153 -194 -167 -180 -3 3 4 32 16 63 60 153 57 143 41 153 -8 5 -29 10 -47 10 -41 0 -49 14 -28 47 20 29 8 49 -23 39 -22 -7 -48 -59 -38 -75 4 -5 -27 -50 -67 -98 -126 -151 -163 -157 -141 -22 5 29 14 39 52 59 46 25 102 90 102 120 0 25 -33 50 -67 50 -37 0 -74 -28 -104 -78 -41 -69 -112 -132 -149 -132 -5 0 -10 12 -10 27 0 18 13 38 40 63 46 43 49 50 17 50 -23 0 -98 -71 -151 -142 -15 -21 -31 -38 -37 -38 -5 0 -9 18 -9 41 0 22 -3 38 -7 36 -5 -3 -9 13 -11 36 -1 23 -5 43 -8 46 -2 2 -17 -4 -32 -15 -15 -11 -35 -23 -46 -27 -19 -8 -19 -9 1 95 4 22 -2 35 -30 63 -19 19 -39 34 -43 34 -5 -1 -16 -3 -25 -6z m49 -64 c1 -19 -3 -54 -11 -79 -11 -40 -16 -45 -42 -45 -34 0 -41 17 -31 71 8 38 52 97 70 91 6 -2 12 -19 14 -38z m582 -43 c0 -13 -18 -40 -45 -66 -25 -24 -45 -41 -45 -37 0 3 9 31 21 62 27 72 69 97 69 41z m-635 -106 c15 0 14 -3 -2 -31 -44 -76 -133 -119 -133 -64 0 25 35 122 51 141 7 9 18 4 39 -17 15 -16 36 -29 45 -29z"/>
<path d="M1186 2575 c-9 -26 -7 -32 5 -12 6 10 9 21 6 23 -2 3 -7 -2 -11 -11z"/>
</g>
</svg>